<?xml version="1.0" encoding="UTF-8" standalone="no"?>
<!DOCTYPE svg PUBLIC "-//W3C//DTD SVG 1.1//EN" "http://www.w3.org/Graphics/SVG/1.1/DTD/svg11.dtd">
<svg xmlns="http://www.w3.org/2000/svg" version="1.1" viewBox="0.00 0.00 1432.00 1354.00">
<path fill="#000000" d="
  M 1432.00 780.49
  L 1432.00 1288.72
  L 1207.43 1288.75
  A 0.90 0.89 -0.0 0 1 1206.53 1287.86
  Q 1206.61 1257.59 1206.51 1226.99
  Q 1206.42 1197.72 1216.19 1165.83
  Q 1216.50 1164.80 1215.69 1165.51
  C 1207.78 1172.42 1198.86 1180.29 1191.80 1186.09
  C 908.55 1418.69 482.93 1408.38 213.11 1157.90
  Q 139.60 1089.66 89.02 1003.08
  Q 4.07 857.63 0.00 688.71
  L 0.00 665.15
  C 3.91 479.94 86.83 307.86 224.87 185.36
  C 494.13 -53.57 909.48 -61.52 1188.74 165.49
  C 1312.94 266.46 1399.22 407.42 1427.31 565.63
  A 0.32 0.31 85.3 0 1 1427.00 566.00
  L 1163.24 566.00
  Q 1162.51 566.00 1162.29 565.29
  C 1114.49 411.84 980.31 303.48 825.72 270.21
  C 676.70 238.15 515.06 274.02 399.61 375.40
  C 334.59 432.50 284.93 509.63 267.04 594.99
  Q 240.72 720.63 293.03 836.95
  C 330.31 919.85 397.98 988.44 476.56 1032.90
  C 651.11 1131.68 880.42 1112.56 1034.27 981.20
  Q 1035.25 980.37 1033.97 980.37
  L 899.19 980.35
  A 0.92 0.91 -0.0 0 1 898.27 979.44
  L 898.27 780.81
  A 0.32 0.32 0.0 0 1 898.59 780.49
  L 1432.00 780.49
  Z"
/>
</svg>
